<mxfile host="app.diagrams.net" modified="2023-05-09T10:43:56.244Z" agent="Mozilla/5.0 (Windows NT 10.0; Win64; x64) AppleWebKit/537.36 (KHTML, like Gecko) Chrome/112.0.0.0 Safari/537.36" etag="rSfZikbtbOUH_Ud0WftD" version="21.2.9" type="device">
  <diagram name="Page-1" id="CytRQbapS5Vo2PdPmSLh">
    <mxGraphModel dx="716" dy="527" grid="1" gridSize="10" guides="1" tooltips="1" connect="1" arrows="1" fold="1" page="1" pageScale="1" pageWidth="1169" pageHeight="827" math="0" shadow="0">
      <root>
        <mxCell id="0" />
        <mxCell id="1" parent="0" />
        <mxCell id="a9VUiloPnZ7TFO2Gp0ZQ-100" value="Ε.Ρ.2 Add Meal?" style="shape=umlFrame;whiteSpace=wrap;html=1;strokeColor=#000000;fontColor=#000000;width=70;height=30;" parent="1" vertex="1">
          <mxGeometry x="490" y="370" width="730" height="290" as="geometry" />
        </mxCell>
        <mxCell id="a9VUiloPnZ7TFO2Gp0ZQ-26" value="Ε.Ρ.1&lt;br&gt;Does meal exist?" style="shape=umlFrame;whiteSpace=wrap;html=1;width=70;height=40;" parent="1" vertex="1">
          <mxGeometry x="360" y="180" width="490" height="170" as="geometry" />
        </mxCell>
        <mxCell id="a9VUiloPnZ7TFO2Gp0ZQ-8" value="&#xa;&lt;span style=&quot;color: rgb(0, 0, 0); font-family: Helvetica; font-size: 12px; font-style: normal; font-variant-ligatures: normal; font-variant-caps: normal; font-weight: 400; letter-spacing: normal; orphans: 2; text-align: center; text-indent: 0px; text-transform: none; widows: 2; word-spacing: 0px; -webkit-text-stroke-width: 0px; background-color: rgb(251, 251, 251); text-decoration-thickness: initial; text-decoration-style: initial; text-decoration-color: initial; float: none; display: inline !important;&quot;&gt;Χρήστης&lt;/span&gt;&#xa;&#xa;" style="shape=umlLifeline;participant=umlActor;perimeter=lifelinePerimeter;whiteSpace=wrap;html=1;container=1;collapsible=0;recursiveResize=0;verticalAlign=top;spacingTop=36;outlineConnect=0;" parent="1" vertex="1">
          <mxGeometry x="190" y="40" width="20" height="640" as="geometry" />
        </mxCell>
        <mxCell id="a9VUiloPnZ7TFO2Gp0ZQ-13" value="" style="html=1;points=[];perimeter=orthogonalPerimeter;" parent="a9VUiloPnZ7TFO2Gp0ZQ-8" vertex="1">
          <mxGeometry x="5" y="80" width="10" height="560" as="geometry" />
        </mxCell>
        <mxCell id="a9VUiloPnZ7TFO2Gp0ZQ-9" value="Σελίδα αναζήτησης φαγητού" style="shape=umlLifeline;participant=umlBoundary;perimeter=lifelinePerimeter;whiteSpace=wrap;html=1;container=1;collapsible=0;recursiveResize=0;verticalAlign=top;spacingTop=36;outlineConnect=0;size=40;" parent="1" vertex="1">
          <mxGeometry x="320" y="40" width="50" height="640" as="geometry" />
        </mxCell>
        <mxCell id="a9VUiloPnZ7TFO2Gp0ZQ-14" value="" style="html=1;points=[];perimeter=orthogonalPerimeter;" parent="a9VUiloPnZ7TFO2Gp0ZQ-9" vertex="1">
          <mxGeometry x="20" y="110" width="10" height="20" as="geometry" />
        </mxCell>
        <mxCell id="a9VUiloPnZ7TFO2Gp0ZQ-109" value="No" style="text;html=1;strokeColor=none;fillColor=none;align=center;verticalAlign=middle;whiteSpace=wrap;rounded=0;fontColor=#000000;" parent="a9VUiloPnZ7TFO2Gp0ZQ-9" vertex="1">
          <mxGeometry x="50" y="220" width="60" height="30" as="geometry" />
        </mxCell>
        <mxCell id="a9VUiloPnZ7TFO2Gp0ZQ-10" value="&#xa;&lt;span style=&quot;color: rgb(0, 0, 0); font-family: Helvetica; font-size: 12px; font-style: normal; font-variant-ligatures: normal; font-variant-caps: normal; font-weight: 400; letter-spacing: normal; orphans: 2; text-align: center; text-indent: 0px; text-transform: none; widows: 2; word-spacing: 0px; -webkit-text-stroke-width: 0px; background-color: rgb(251, 251, 251); text-decoration-thickness: initial; text-decoration-style: initial; text-decoration-color: initial; float: none; display: inline !important;&quot;&gt;Σελίδα λεπτομέρειες φαγητού&lt;/span&gt;&#xa;&#xa;" style="shape=umlLifeline;participant=umlBoundary;perimeter=lifelinePerimeter;whiteSpace=wrap;html=1;container=1;collapsible=0;recursiveResize=0;verticalAlign=top;spacingTop=36;outlineConnect=0;" parent="1" vertex="1">
          <mxGeometry x="560" y="40" width="50" height="640" as="geometry" />
        </mxCell>
        <mxCell id="a9VUiloPnZ7TFO2Gp0ZQ-47" value="" style="html=1;points=[];perimeter=orthogonalPerimeter;" parent="a9VUiloPnZ7TFO2Gp0ZQ-10" vertex="1">
          <mxGeometry x="20" y="300" width="10" height="10" as="geometry" />
        </mxCell>
        <mxCell id="a9VUiloPnZ7TFO2Gp0ZQ-48" value="" style="html=1;points=[];perimeter=orthogonalPerimeter;" parent="a9VUiloPnZ7TFO2Gp0ZQ-10" vertex="1">
          <mxGeometry x="20" y="170" width="10" height="350" as="geometry" />
        </mxCell>
        <mxCell id="a9VUiloPnZ7TFO2Gp0ZQ-34" value="" style="endArrow=classic;html=1;rounded=0;dashed=1;startArrow=none;" parent="a9VUiloPnZ7TFO2Gp0ZQ-10" source="a9VUiloPnZ7TFO2Gp0ZQ-48" target="a9VUiloPnZ7TFO2Gp0ZQ-10" edge="1">
          <mxGeometry width="50" height="50" relative="1" as="geometry">
            <mxPoint x="-90" y="170" as="sourcePoint" />
            <mxPoint x="-10" y="190" as="targetPoint" />
          </mxGeometry>
        </mxCell>
        <mxCell id="a9VUiloPnZ7TFO2Gp0ZQ-11" value="&#xa;&lt;span style=&quot;color: rgb(0, 0, 0); font-family: Helvetica; font-size: 12px; font-style: normal; font-variant-ligatures: normal; font-variant-caps: normal; font-weight: 400; letter-spacing: normal; orphans: 2; text-align: center; text-indent: 0px; text-transform: none; widows: 2; word-spacing: 0px; -webkit-text-stroke-width: 0px; background-color: rgb(251, 251, 251); text-decoration-thickness: initial; text-decoration-style: initial; text-decoration-color: initial; float: none; display: inline !important;&quot;&gt;Σελίδα ημερήσια λίστα&lt;/span&gt;&#xa;&#xa;" style="shape=umlLifeline;participant=umlBoundary;perimeter=lifelinePerimeter;whiteSpace=wrap;html=1;container=1;collapsible=0;recursiveResize=0;verticalAlign=top;spacingTop=36;outlineConnect=0;" parent="1" vertex="1">
          <mxGeometry x="1160" y="40" width="50" height="640" as="geometry" />
        </mxCell>
        <mxCell id="AYwPEZHC1769M3G17Lkg-18" value="" style="html=1;points=[];perimeter=orthogonalPerimeter;" parent="a9VUiloPnZ7TFO2Gp0ZQ-11" vertex="1">
          <mxGeometry x="20" y="420" width="10" height="180" as="geometry" />
        </mxCell>
        <mxCell id="a9VUiloPnZ7TFO2Gp0ZQ-12" value="&#xa;&lt;span style=&quot;color: rgb(0, 0, 0); font-family: Helvetica; font-size: 12px; font-style: normal; font-variant-ligatures: normal; font-variant-caps: normal; font-weight: 400; letter-spacing: normal; orphans: 2; text-align: center; text-indent: 0px; text-transform: none; widows: 2; word-spacing: 0px; -webkit-text-stroke-width: 0px; background-color: rgb(251, 251, 251); text-decoration-thickness: initial; text-decoration-style: initial; text-decoration-color: initial; float: none; display: inline !important;&quot;&gt;Λίστα φαγητών&lt;/span&gt;&#xa;&#xa;" style="shape=umlLifeline;participant=umlEntity;perimeter=lifelinePerimeter;whiteSpace=wrap;html=1;container=1;collapsible=0;recursiveResize=0;verticalAlign=top;spacingTop=36;outlineConnect=0;" parent="1" vertex="1">
          <mxGeometry x="440" y="40" width="40" height="640" as="geometry" />
        </mxCell>
        <mxCell id="a9VUiloPnZ7TFO2Gp0ZQ-57" value="" style="html=1;points=[];perimeter=orthogonalPerimeter;" parent="a9VUiloPnZ7TFO2Gp0ZQ-12" vertex="1">
          <mxGeometry x="15" y="130" width="10" height="170" as="geometry" />
        </mxCell>
        <mxCell id="a9VUiloPnZ7TFO2Gp0ZQ-17" value="searchMeal()" style="edgeStyle=orthogonalEdgeStyle;rounded=0;orthogonalLoop=1;jettySize=auto;html=1;" parent="1" edge="1">
          <mxGeometry relative="1" as="geometry">
            <mxPoint x="200" y="150" as="sourcePoint" />
            <mxPoint x="340" y="150" as="targetPoint" />
            <Array as="points">
              <mxPoint x="339" y="150" />
            </Array>
          </mxGeometry>
        </mxCell>
        <mxCell id="a9VUiloPnZ7TFO2Gp0ZQ-18" value="Ημερήσια λίστα" style="shape=umlLifeline;participant=umlEntity;perimeter=lifelinePerimeter;whiteSpace=wrap;html=1;container=1;collapsible=0;recursiveResize=0;verticalAlign=top;spacingTop=36;outlineConnect=0;" parent="1" vertex="1">
          <mxGeometry x="920" y="40" width="40" height="640" as="geometry" />
        </mxCell>
        <mxCell id="AYwPEZHC1769M3G17Lkg-17" value="" style="html=1;points=[];perimeter=orthogonalPerimeter;" parent="a9VUiloPnZ7TFO2Gp0ZQ-18" vertex="1">
          <mxGeometry x="15" y="380" width="10" height="160" as="geometry" />
        </mxCell>
        <mxCell id="a9VUiloPnZ7TFO2Gp0ZQ-20" value="Μήνυμα ανεπιτυχούς εντοπισμού" style="shape=umlLifeline;participant=umlBoundary;perimeter=lifelinePerimeter;whiteSpace=wrap;html=1;container=1;collapsible=0;recursiveResize=0;verticalAlign=top;spacingTop=36;outlineConnect=0;strokeColor=#000000;" parent="1" vertex="1">
          <mxGeometry x="680" y="40" width="50" height="640" as="geometry" />
        </mxCell>
        <mxCell id="a9VUiloPnZ7TFO2Gp0ZQ-54" value="" style="html=1;points=[];perimeter=orthogonalPerimeter;" parent="a9VUiloPnZ7TFO2Gp0ZQ-20" vertex="1">
          <mxGeometry x="20" y="220" width="10" height="20" as="geometry" />
        </mxCell>
        <mxCell id="a9VUiloPnZ7TFO2Gp0ZQ-36" value="" style="endArrow=classic;html=1;rounded=0;startArrow=none;" parent="a9VUiloPnZ7TFO2Gp0ZQ-20" source="a9VUiloPnZ7TFO2Gp0ZQ-54" target="a9VUiloPnZ7TFO2Gp0ZQ-20" edge="1">
          <mxGeometry width="50" height="50" relative="1" as="geometry">
            <mxPoint x="-180" y="340" as="sourcePoint" />
            <mxPoint x="-130" y="290" as="targetPoint" />
            <Array as="points" />
          </mxGeometry>
        </mxCell>
        <mxCell id="a9VUiloPnZ7TFO2Gp0ZQ-21" value="Σελίδα προσθήκης φαγητού" style="shape=umlLifeline;participant=umlBoundary;perimeter=lifelinePerimeter;whiteSpace=wrap;html=1;container=1;collapsible=0;recursiveResize=0;verticalAlign=top;spacingTop=36;outlineConnect=0;" parent="1" vertex="1">
          <mxGeometry x="800" y="40" width="50" height="640" as="geometry" />
        </mxCell>
        <mxCell id="a9VUiloPnZ7TFO2Gp0ZQ-55" value="" style="html=1;points=[];perimeter=orthogonalPerimeter;" parent="a9VUiloPnZ7TFO2Gp0ZQ-21" vertex="1">
          <mxGeometry x="20" y="240" width="10" height="40" as="geometry" />
        </mxCell>
        <mxCell id="a9VUiloPnZ7TFO2Gp0ZQ-23" value="" style="edgeStyle=orthogonalEdgeStyle;rounded=0;orthogonalLoop=1;jettySize=auto;html=1;" parent="1" source="a9VUiloPnZ7TFO2Gp0ZQ-14" edge="1">
          <mxGeometry relative="1" as="geometry">
            <mxPoint x="455" y="170" as="targetPoint" />
            <Array as="points">
              <mxPoint x="430" y="170" />
              <mxPoint x="430" y="170" />
            </Array>
          </mxGeometry>
        </mxCell>
        <mxCell id="a9VUiloPnZ7TFO2Gp0ZQ-24" value="checkMeal()" style="edgeLabel;html=1;align=center;verticalAlign=middle;resizable=0;points=[];" parent="a9VUiloPnZ7TFO2Gp0ZQ-23" vertex="1" connectable="0">
          <mxGeometry x="-0.2476" y="-1" relative="1" as="geometry">
            <mxPoint x="11" y="-1" as="offset" />
          </mxGeometry>
        </mxCell>
        <mxCell id="a9VUiloPnZ7TFO2Gp0ZQ-28" value="" style="endArrow=none;dashed=1;html=1;strokeWidth=2;rounded=0;entryX=1.004;entryY=0.417;entryDx=0;entryDy=0;entryPerimeter=0;" parent="1" target="a9VUiloPnZ7TFO2Gp0ZQ-26" edge="1">
          <mxGeometry width="50" height="50" relative="1" as="geometry">
            <mxPoint x="360" y="250" as="sourcePoint" />
            <mxPoint x="850" y="240" as="targetPoint" />
          </mxGeometry>
        </mxCell>
        <mxCell id="a9VUiloPnZ7TFO2Gp0ZQ-29" value="" style="endArrow=none;dashed=1;html=1;dashPattern=1 3;strokeWidth=2;rounded=0;entryX=0.163;entryY=0;entryDx=0;entryDy=0;entryPerimeter=0;exitX=0.162;exitY=0.997;exitDx=0;exitDy=0;exitPerimeter=0;" parent="1" source="a9VUiloPnZ7TFO2Gp0ZQ-26" target="a9VUiloPnZ7TFO2Gp0ZQ-26" edge="1">
          <mxGeometry width="50" height="50" relative="1" as="geometry">
            <mxPoint x="540" y="380" as="sourcePoint" />
            <mxPoint x="590" y="330" as="targetPoint" />
          </mxGeometry>
        </mxCell>
        <mxCell id="a9VUiloPnZ7TFO2Gp0ZQ-38" value="" style="endArrow=classic;html=1;rounded=0;exitX=1.2;exitY=0.925;exitDx=0;exitDy=0;exitPerimeter=0;entryX=-0.217;entryY=-0.015;entryDx=0;entryDy=0;entryPerimeter=0;" parent="1" source="a9VUiloPnZ7TFO2Gp0ZQ-54" target="a9VUiloPnZ7TFO2Gp0ZQ-55" edge="1">
          <mxGeometry width="50" height="50" relative="1" as="geometry">
            <mxPoint x="740" y="360" as="sourcePoint" />
            <mxPoint x="790" y="310" as="targetPoint" />
            <Array as="points" />
          </mxGeometry>
        </mxCell>
        <mxCell id="a9VUiloPnZ7TFO2Gp0ZQ-39" value="show()" style="edgeLabel;html=1;align=center;verticalAlign=middle;resizable=0;points=[];" parent="a9VUiloPnZ7TFO2Gp0ZQ-38" vertex="1" connectable="0">
          <mxGeometry x="-0.1266" y="-2" relative="1" as="geometry">
            <mxPoint x="12" y="-11" as="offset" />
          </mxGeometry>
        </mxCell>
        <mxCell id="a9VUiloPnZ7TFO2Gp0ZQ-42" style="edgeStyle=orthogonalEdgeStyle;rounded=0;orthogonalLoop=1;jettySize=auto;html=1;exitX=0.5;exitY=1;exitDx=0;exitDy=0;dashed=1;endArrow=openThin;endFill=0;" parent="1" edge="1">
          <mxGeometry relative="1" as="geometry">
            <mxPoint x="400" y="330" as="sourcePoint" />
            <mxPoint x="400" y="330" as="targetPoint" />
          </mxGeometry>
        </mxCell>
        <mxCell id="a9VUiloPnZ7TFO2Gp0ZQ-44" value="" style="endArrow=classic;html=1;rounded=0;entryX=-0.133;entryY=0.339;entryDx=0;entryDy=0;entryPerimeter=0;exitX=1.035;exitY=0.31;exitDx=0;exitDy=0;exitPerimeter=0;" parent="1" source="a9VUiloPnZ7TFO2Gp0ZQ-13" target="a9VUiloPnZ7TFO2Gp0ZQ-55" edge="1">
          <mxGeometry width="50" height="50" relative="1" as="geometry">
            <mxPoint x="400" y="360" as="sourcePoint" />
            <mxPoint x="450" y="310" as="targetPoint" />
            <Array as="points" />
          </mxGeometry>
        </mxCell>
        <mxCell id="a9VUiloPnZ7TFO2Gp0ZQ-45" value="addCustomMeal()" style="edgeLabel;html=1;align=center;verticalAlign=middle;resizable=0;points=[];" parent="a9VUiloPnZ7TFO2Gp0ZQ-44" vertex="1" connectable="0">
          <mxGeometry x="-0.067" y="-1" relative="1" as="geometry">
            <mxPoint x="-211" y="-11" as="offset" />
          </mxGeometry>
        </mxCell>
        <mxCell id="a9VUiloPnZ7TFO2Gp0ZQ-40" value="" style="endArrow=classic;html=1;rounded=0;dashed=1;endFill=1;entryX=0.9;entryY=0.876;entryDx=0;entryDy=0;entryPerimeter=0;" parent="1" target="a9VUiloPnZ7TFO2Gp0ZQ-57" edge="1">
          <mxGeometry width="50" height="50" relative="1" as="geometry">
            <mxPoint x="820" y="320" as="sourcePoint" />
            <mxPoint x="460" y="310" as="targetPoint" />
            <Array as="points">
              <mxPoint x="650" y="320" />
            </Array>
          </mxGeometry>
        </mxCell>
        <mxCell id="a9VUiloPnZ7TFO2Gp0ZQ-41" value="addToMealList()" style="edgeLabel;html=1;align=center;verticalAlign=middle;resizable=0;points=[];" parent="a9VUiloPnZ7TFO2Gp0ZQ-40" vertex="1" connectable="0">
          <mxGeometry x="-0.1331" y="2" relative="1" as="geometry">
            <mxPoint x="94" y="-12" as="offset" />
          </mxGeometry>
        </mxCell>
        <mxCell id="a9VUiloPnZ7TFO2Gp0ZQ-46" value="&lt;span style=&quot;color: rgb(0, 0, 0); font-family: Helvetica; font-size: 11px; font-style: normal; font-variant-ligatures: normal; font-variant-caps: normal; font-weight: 400; letter-spacing: normal; orphans: 2; text-align: center; text-indent: 0px; text-transform: none; widows: 2; word-spacing: 0px; -webkit-text-stroke-width: 0px; background-color: rgb(255, 255, 255); text-decoration-thickness: initial; text-decoration-style: initial; text-decoration-color: initial; float: none; display: inline !important;&quot;&gt;showMeal()&lt;/span&gt;" style="endArrow=classic;html=1;rounded=0;" parent="1" edge="1">
          <mxGeometry y="10" width="50" height="50" relative="1" as="geometry">
            <mxPoint x="460" y="340" as="sourcePoint" />
            <mxPoint x="580" y="340" as="targetPoint" />
            <mxPoint as="offset" />
          </mxGeometry>
        </mxCell>
        <mxCell id="a9VUiloPnZ7TFO2Gp0ZQ-49" value="" style="endArrow=classic;html=1;rounded=0;endFill=1;exitX=1;exitY=0.827;exitDx=0;exitDy=0;exitPerimeter=0;entryX=0;entryY=0;entryDx=0;entryDy=0;entryPerimeter=0;" parent="1" target="a9VUiloPnZ7TFO2Gp0ZQ-48" edge="1">
          <mxGeometry width="50" height="50" relative="1" as="geometry">
            <mxPoint x="465" y="211.3499999999999" as="sourcePoint" />
            <mxPoint x="570" y="211" as="targetPoint" />
            <Array as="points">
              <mxPoint x="520" y="211" />
            </Array>
          </mxGeometry>
        </mxCell>
        <mxCell id="a9VUiloPnZ7TFO2Gp0ZQ-110" value="showMeal()" style="edgeLabel;html=1;align=center;verticalAlign=middle;resizable=0;points=[];fontColor=#000000;" parent="a9VUiloPnZ7TFO2Gp0ZQ-49" vertex="1" connectable="0">
          <mxGeometry x="-0.3247" y="3" relative="1" as="geometry">
            <mxPoint x="19" y="-8" as="offset" />
          </mxGeometry>
        </mxCell>
        <mxCell id="a9VUiloPnZ7TFO2Gp0ZQ-52" value="" style="endArrow=classic;html=1;rounded=0;endFill=1;entryX=-0.05;entryY=0.008;entryDx=0;entryDy=0;entryPerimeter=0;" parent="1" source="a9VUiloPnZ7TFO2Gp0ZQ-57" target="a9VUiloPnZ7TFO2Gp0ZQ-54" edge="1">
          <mxGeometry width="50" height="50" relative="1" as="geometry">
            <mxPoint x="465" y="310.55999999999995" as="sourcePoint" />
            <mxPoint x="704.5" y="310" as="targetPoint" />
          </mxGeometry>
        </mxCell>
        <mxCell id="a9VUiloPnZ7TFO2Gp0ZQ-53" value="show()" style="edgeLabel;html=1;align=center;verticalAlign=middle;resizable=0;points=[];" parent="a9VUiloPnZ7TFO2Gp0ZQ-52" vertex="1" connectable="0">
          <mxGeometry x="-0.2491" y="2" relative="1" as="geometry">
            <mxPoint x="4" y="-8" as="offset" />
          </mxGeometry>
        </mxCell>
        <mxCell id="a9VUiloPnZ7TFO2Gp0ZQ-91" value="" style="endArrow=classic;html=1;rounded=0;fontColor=#000000;" parent="1" edge="1">
          <mxGeometry width="50" height="50" relative="1" as="geometry">
            <mxPoint x="585" y="424.5" as="sourcePoint" />
            <mxPoint x="935" y="424.5" as="targetPoint" />
            <Array as="points">
              <mxPoint x="655" y="424.5" />
            </Array>
          </mxGeometry>
        </mxCell>
        <mxCell id="a9VUiloPnZ7TFO2Gp0ZQ-99" value="addToDailyList()" style="edgeLabel;html=1;align=center;verticalAlign=middle;resizable=0;points=[];fontColor=#000000;" parent="a9VUiloPnZ7TFO2Gp0ZQ-91" vertex="1" connectable="0">
          <mxGeometry x="0.6805" y="-1" relative="1" as="geometry">
            <mxPoint x="-113" y="-11" as="offset" />
          </mxGeometry>
        </mxCell>
        <mxCell id="a9VUiloPnZ7TFO2Gp0ZQ-92" value="" style="endArrow=classic;html=1;rounded=0;fontColor=#000000;" parent="1" target="a9VUiloPnZ7TFO2Gp0ZQ-48" edge="1">
          <mxGeometry width="50" height="50" relative="1" as="geometry">
            <mxPoint x="200" y="407" as="sourcePoint" />
            <mxPoint x="580" y="390" as="targetPoint" />
            <Array as="points" />
          </mxGeometry>
        </mxCell>
        <mxCell id="a9VUiloPnZ7TFO2Gp0ZQ-106" value="addMeal()" style="edgeLabel;html=1;align=center;verticalAlign=middle;resizable=0;points=[];fontColor=#000000;" parent="a9VUiloPnZ7TFO2Gp0ZQ-92" vertex="1" connectable="0">
          <mxGeometry x="0.005" y="-3" relative="1" as="geometry">
            <mxPoint x="-130" y="-12" as="offset" />
          </mxGeometry>
        </mxCell>
        <mxCell id="a9VUiloPnZ7TFO2Gp0ZQ-108" value="Yes" style="text;html=1;strokeColor=none;fillColor=none;align=center;verticalAlign=middle;whiteSpace=wrap;rounded=0;fontColor=#000000;" parent="1" vertex="1">
          <mxGeometry x="370" y="220" width="60" height="30" as="geometry" />
        </mxCell>
        <mxCell id="a9VUiloPnZ7TFO2Gp0ZQ-111" value="Yes" style="text;html=1;strokeColor=none;fillColor=none;align=center;verticalAlign=middle;whiteSpace=wrap;rounded=0;fontColor=#000000;" parent="1" vertex="1">
          <mxGeometry x="510" y="460" width="60" height="30" as="geometry" />
        </mxCell>
        <mxCell id="a9VUiloPnZ7TFO2Gp0ZQ-112" value="No" style="text;html=1;strokeColor=none;fillColor=none;align=center;verticalAlign=middle;whiteSpace=wrap;rounded=0;fontColor=#000000;" parent="1" vertex="1">
          <mxGeometry x="510" y="590" width="60" height="30" as="geometry" />
        </mxCell>
        <mxCell id="AYwPEZHC1769M3G17Lkg-1" value="Ημερήσια λίστα κατανάλωσης" style="shape=umlLifeline;participant=umlEntity;perimeter=lifelinePerimeter;whiteSpace=wrap;html=1;container=1;collapsible=0;recursiveResize=0;verticalAlign=top;spacingTop=36;outlineConnect=0;" parent="1" vertex="1">
          <mxGeometry x="1040" y="40" width="40" height="640" as="geometry" />
        </mxCell>
        <mxCell id="AYwPEZHC1769M3G17Lkg-13" value="" style="endArrow=classic;html=1;rounded=0;dashed=1;entryX=1.2;entryY=0.85;entryDx=0;entryDy=0;entryPerimeter=0;" parent="AYwPEZHC1769M3G17Lkg-1" target="_tovvG2ssarusbgTCsNB-1" edge="1">
          <mxGeometry width="50" height="50" relative="1" as="geometry">
            <mxPoint x="142.5" y="570" as="sourcePoint" />
            <mxPoint x="20" y="570" as="targetPoint" />
            <Array as="points" />
          </mxGeometry>
        </mxCell>
        <mxCell id="AYwPEZHC1769M3G17Lkg-14" value="requestData()" style="edgeLabel;html=1;align=center;verticalAlign=middle;resizable=0;points=[];" parent="AYwPEZHC1769M3G17Lkg-13" vertex="1" connectable="0">
          <mxGeometry x="0.2122" y="-1" relative="1" as="geometry">
            <mxPoint x="2" y="-9" as="offset" />
          </mxGeometry>
        </mxCell>
        <mxCell id="_tovvG2ssarusbgTCsNB-1" value="" style="html=1;points=[];perimeter=orthogonalPerimeter;" parent="AYwPEZHC1769M3G17Lkg-1" vertex="1">
          <mxGeometry x="15" y="400" width="10" height="200" as="geometry" />
        </mxCell>
        <mxCell id="AYwPEZHC1769M3G17Lkg-3" value="update()" style="endArrow=classic;html=1;rounded=0;" parent="1" source="a9VUiloPnZ7TFO2Gp0ZQ-18" target="AYwPEZHC1769M3G17Lkg-1" edge="1">
          <mxGeometry x="0.0083" y="10" width="50" height="50" relative="1" as="geometry">
            <mxPoint x="960" y="424.5" as="sourcePoint" />
            <mxPoint x="1040" y="424.5" as="targetPoint" />
            <Array as="points">
              <mxPoint x="1000" y="440" />
            </Array>
            <mxPoint x="1" as="offset" />
          </mxGeometry>
        </mxCell>
        <mxCell id="AYwPEZHC1769M3G17Lkg-5" value="show()" style="endArrow=classic;html=1;rounded=0;" parent="1" source="AYwPEZHC1769M3G17Lkg-1" target="a9VUiloPnZ7TFO2Gp0ZQ-11" edge="1">
          <mxGeometry y="10" width="50" height="50" relative="1" as="geometry">
            <mxPoint x="1089" y="520" as="sourcePoint" />
            <mxPoint x="1169" y="520" as="targetPoint" />
            <Array as="points">
              <mxPoint x="1080" y="460" />
              <mxPoint x="1120" y="460" />
            </Array>
            <mxPoint as="offset" />
          </mxGeometry>
        </mxCell>
        <mxCell id="AYwPEZHC1769M3G17Lkg-6" value="show()" style="endArrow=classic;html=1;rounded=0;" parent="1" source="a9VUiloPnZ7TFO2Gp0ZQ-18" target="a9VUiloPnZ7TFO2Gp0ZQ-11" edge="1">
          <mxGeometry x="-0.5061" y="10" width="50" height="50" relative="1" as="geometry">
            <mxPoint x="1090" y="490" as="sourcePoint" />
            <mxPoint x="1170" y="490" as="targetPoint" />
            <Array as="points">
              <mxPoint x="1040" y="520" />
              <mxPoint x="1130" y="520" />
            </Array>
            <mxPoint as="offset" />
          </mxGeometry>
        </mxCell>
        <mxCell id="AYwPEZHC1769M3G17Lkg-8" value="" style="endArrow=classic;html=1;rounded=0;dashed=1;" parent="1" source="a9VUiloPnZ7TFO2Gp0ZQ-11" target="a9VUiloPnZ7TFO2Gp0ZQ-18" edge="1">
          <mxGeometry width="50" height="50" relative="1" as="geometry">
            <mxPoint x="990" y="600" as="sourcePoint" />
            <mxPoint x="1040" y="550" as="targetPoint" />
            <Array as="points">
              <mxPoint x="1000" y="480" />
            </Array>
          </mxGeometry>
        </mxCell>
        <mxCell id="AYwPEZHC1769M3G17Lkg-9" value="requestData()" style="edgeLabel;html=1;align=center;verticalAlign=middle;resizable=0;points=[];" parent="AYwPEZHC1769M3G17Lkg-8" vertex="1" connectable="0">
          <mxGeometry x="0.2122" y="-1" relative="1" as="geometry">
            <mxPoint x="-36" y="-9" as="offset" />
          </mxGeometry>
        </mxCell>
        <mxCell id="AYwPEZHC1769M3G17Lkg-10" value="&lt;span style=&quot;color: rgb(0, 0, 0); font-family: Helvetica; font-size: 11px; font-style: normal; font-variant-ligatures: normal; font-variant-caps: normal; font-weight: 400; letter-spacing: normal; orphans: 2; text-align: center; text-indent: 0px; text-transform: none; widows: 2; word-spacing: 0px; -webkit-text-stroke-width: 0px; background-color: rgb(255, 255, 255); text-decoration-thickness: initial; text-decoration-style: initial; text-decoration-color: initial; float: none; display: inline !important;&quot;&gt;getData()&lt;/span&gt;" style="endArrow=classic;html=1;rounded=0;" parent="1" target="a9VUiloPnZ7TFO2Gp0ZQ-18" edge="1">
          <mxGeometry x="-0.0127" y="10" width="50" height="50" relative="1" as="geometry">
            <mxPoint x="585" y="560" as="sourcePoint" />
            <mxPoint x="635" y="510" as="targetPoint" />
            <mxPoint as="offset" />
          </mxGeometry>
        </mxCell>
        <mxCell id="AYwPEZHC1769M3G17Lkg-12" value="show()" style="endArrow=classic;html=1;rounded=0;" parent="1" source="a9VUiloPnZ7TFO2Gp0ZQ-18" target="a9VUiloPnZ7TFO2Gp0ZQ-11" edge="1">
          <mxGeometry x="-0.5061" y="10" width="50" height="50" relative="1" as="geometry">
            <mxPoint x="940" y="640" as="sourcePoint" />
            <mxPoint x="790" y="590" as="targetPoint" />
            <Array as="points">
              <mxPoint x="1080" y="580" />
            </Array>
            <mxPoint as="offset" />
          </mxGeometry>
        </mxCell>
        <mxCell id="AYwPEZHC1769M3G17Lkg-15" value="show()" style="endArrow=classic;html=1;rounded=0;" parent="1" edge="1">
          <mxGeometry x="-0.2" y="10" width="50" height="50" relative="1" as="geometry">
            <mxPoint x="1060" y="640" as="sourcePoint" />
            <mxPoint x="1185" y="640" as="targetPoint" />
            <Array as="points">
              <mxPoint x="1130.5" y="640" />
            </Array>
            <mxPoint as="offset" />
          </mxGeometry>
        </mxCell>
        <mxCell id="AYwPEZHC1769M3G17Lkg-16" value="" style="endArrow=none;dashed=1;html=1;rounded=0;entryX=1;entryY=0.59;entryDx=0;entryDy=0;entryPerimeter=0;dashPattern=8 8;" parent="1" target="a9VUiloPnZ7TFO2Gp0ZQ-100" edge="1">
          <mxGeometry width="50" height="50" relative="1" as="geometry">
            <mxPoint x="490" y="540" as="sourcePoint" />
            <mxPoint x="540" y="490" as="targetPoint" />
          </mxGeometry>
        </mxCell>
        <mxCell id="_tovvG2ssarusbgTCsNB-2" value=":Object" style="shape=umlLifeline;perimeter=lifelinePerimeter;whiteSpace=wrap;html=1;container=1;collapsible=0;recursiveResize=0;outlineConnect=0;" parent="1" vertex="1">
          <mxGeometry x="295" y="40" width="100" height="100" as="geometry" />
        </mxCell>
      </root>
    </mxGraphModel>
  </diagram>
</mxfile>
